<svg width="42" height="42" viewBox="0 0 42 42" fill="none" xmlns="http://www.w3.org/2000/svg">
<g filter="url(#filter0_d_583_4577)">
<mask id="path-1-inside-1_583_4577" fill="white">
<rect y="21" width="29.6987" height="29.6983" rx="3" transform="rotate(-45 0 21)"/>
</mask>
<rect y="21" width="29.6987" height="29.6983" rx="3" transform="rotate(-45 0 21)" stroke="url(#paint0_linear_583_4577)" stroke-width="8" mask="url(#path-1-inside-1_583_4577)"/>
<path fill-rule="evenodd" clip-rule="evenodd" d="M12.9028 13.4459C12.8825 13.423 12.8825 13.3886 12.9028 13.3657L13.7625 12.3973C14.3669 11.7165 15.4302 11.7165 16.0345 12.3973L19.3316 16.1111C20.1273 17.0073 21.5272 17.0073 22.3228 16.1111L25.5436 12.4832C26.1479 11.8025 27.2112 11.8025 27.8156 12.4832L28.6971 13.4761C28.705 13.485 28.705 13.4984 28.6971 13.5073L28.6657 13.5427C28.6644 13.5441 28.6655 13.5464 28.6674 13.5464C28.6686 13.5464 28.6696 13.5474 28.6696 13.5487V27.4805C28.6696 28.2738 28.0266 28.9169 27.2333 28.9169C26.44 28.9169 25.7969 28.2738 25.7969 27.4805V21.9698C25.7969 20.1545 23.5527 19.302 22.3475 20.6596L20.8728 22.3206C20.8722 22.3214 20.871 22.3214 20.8704 22.3206C20.8698 22.3199 20.8686 22.3199 20.868 22.3206L20.847 22.3443C20.8352 22.3576 20.8144 22.3576 20.8026 22.3443L19.2356 20.5792C18.0143 19.2035 15.74 20.0674 15.74 21.907V27.4805C15.74 28.2738 15.0969 28.9169 14.3036 28.9169C13.5103 28.9169 12.8672 28.2738 12.8672 27.4805V13.5851C12.8672 13.5638 12.8845 13.5464 12.9059 13.5464C12.9393 13.5464 12.957 13.507 12.9348 13.482L12.9028 13.4459Z" fill="#391CDD"/>
</g>
<defs>
<filter id="filter0_d_583_4577" x="0" y="0" width="42" height="43" filterUnits="userSpaceOnUse" color-interpolation-filters="sRGB">
<feFlood flood-opacity="0" result="BackgroundImageFix"/>
<feColorMatrix in="SourceAlpha" type="matrix" values="0 0 0 0 0 0 0 0 0 0 0 0 0 0 0 0 0 0 127 0" result="hardAlpha"/>
<feOffset dy="1"/>
<feComposite in2="hardAlpha" operator="out"/>
<feColorMatrix type="matrix" values="0 0 0 0 0.968627 0 0 0 0 0.827137 0 0 0 0 0.32549 0 0 0 0.25 0"/>
<feBlend mode="normal" in2="BackgroundImageFix" result="effect1_dropShadow_583_4577"/>
<feBlend mode="normal" in="SourceGraphic" in2="effect1_dropShadow_583_4577" result="shape"/>
</filter>
<linearGradient id="paint0_linear_583_4577" x1="22.5502" y1="20.8496" x2="8.20033" y2="53.3994" gradientUnits="userSpaceOnUse">
<stop stop-color="#F7D353"/>
<stop offset="1" stop-color="white" stop-opacity="0"/>
</linearGradient>
</defs>
</svg>
