<svg width="40" height="40" viewBox="0 0 40 40" fill="none" xmlns="http://www.w3.org/2000/svg">
<path d="M8.19469 23.7071C8.19469 21.9813 6.79562 20.5821 5.06969 20.5821H4.95609C5.96945 20.2273 6.69656 19.2633 6.69656 18.1288V17.1539C6.69656 15.7184 5.53281 14.5547 4.09734 14.5547C2.66187 14.5547 1.49812 15.7184 1.49812 17.1539V18.1288C1.49812 19.2633 2.22516 20.2274 3.23852 20.5821H3.125C1.39914 20.5821 0 21.9813 0 23.7071V25.4438H8.19469V23.7071Z" fill="#391CDD"/>
<path d="M36.8745 20.5821H36.7609C37.7742 20.2273 38.5013 19.2633 38.5013 18.1288V17.1539C38.5013 15.7184 37.3375 14.5547 35.902 14.5547C34.4666 14.5547 33.3028 15.7184 33.3028 17.1539V18.1288C33.3028 19.2633 34.0298 20.2274 35.0433 20.5821H34.9297C33.2038 20.5821 31.8047 21.9813 31.8047 23.7071V25.4438H39.9995V23.7071C39.9995 21.9813 38.6003 20.5821 36.8745 20.5821Z" fill="#391CDD"/>
<path opacity="0.5" d="M13.5781 24.7744V28.6504H26.4245V24.7744C26.4245 22.1855 24.3258 20.0869 21.737 20.0869H21.0141C22.5855 19.6452 23.7382 18.2027 23.7382 16.4901V15.0884C23.7382 13.0246 22.0652 11.3516 20.0013 11.3516C17.9375 11.3516 16.2645 13.0246 16.2645 15.0884V16.4901C16.2645 18.2027 17.417 19.6452 18.9886 20.0869H18.2657C15.6768 20.0869 13.5781 22.1855 13.5781 24.7744Z" fill="#391CDD"/>
<path d="M19.9984 2.34375C23.7396 2.34375 27.2831 3.86211 29.8587 6.49039H26.8513V8.83414H33.5106V2.17484H31.1669V4.48852C28.1891 1.63711 24.2005 0 19.9984 0C14.6864 0 9.71328 2.61469 6.69531 6.99422L8.62523 8.32414C11.2057 4.57938 15.4573 2.34375 19.9984 2.34375Z" fill="#391CDD"/>
<path d="M19.9966 37.6545C16.2554 37.6545 12.7119 36.1361 10.1363 33.5078H13.1437V31.1641H6.48438V37.8234H8.82813V35.5097C11.8059 38.3611 15.7945 39.9982 19.9966 39.9982C25.3086 39.9982 30.2817 37.3835 33.2997 33.004L31.3698 31.6741C28.7893 35.4188 24.5377 37.6545 19.9966 37.6545Z" fill="#391CDD"/>
</svg>
