<svg width="40" height="40" viewBox="0 0 40 40" fill="none" xmlns="http://www.w3.org/2000/svg">
<path d="M34.3352 34.3409C41.8757 26.8003 41.8757 14.5747 34.3352 7.03412C26.7946 -0.506437 14.569 -0.506439 7.0284 7.03412C-0.512166 14.5747 -0.512166 26.8003 7.0284 34.3409C14.569 41.8814 26.7946 41.8814 34.3352 34.3409Z" fill="#391CDD"/>
<path d="M20.6875 1.375V39.9984C31.336 39.9984 39.9993 31.3352 39.9993 20.6867C39.9993 10.0381 31.336 1.375 20.6875 1.375Z" fill="#391CDD"/>
<path d="M22.7954 33.3469C29.784 32.1774 34.5014 25.5639 33.3319 18.5752C32.1624 11.5866 25.5489 6.86919 18.5603 8.03869C11.5717 9.20819 6.85432 15.8217 8.02382 22.8104C9.19333 29.799 15.8068 34.5164 22.7954 33.3469Z" fill="white"/>
<path d="M20.6875 7.85938V33.5269C27.764 33.5269 33.5213 27.7696 33.5213 20.6931C33.5213 13.6166 27.764 7.85938 20.6875 7.85938Z" fill="white"/>
<path opacity="0.5" d="M26.3521 23.5846C27.9457 20.457 26.7022 16.6297 23.5746 15.0361C20.447 13.4425 16.6198 14.686 15.0261 17.8136C13.4325 20.9412 14.676 24.7685 17.8036 26.3621C20.9312 27.9557 24.7585 26.7122 26.3521 23.5846Z" fill="#391CDD"/>
<path d="M14.3043 6.01825L8.62981 0.34377C8.34749 0.0612935 7.94071 -0.0580803 7.55052 0.0268738C7.16032 0.111828 6.84006 0.389454 6.70059 0.76369L5.53916 3.87985L5.87092 5.87103L3.87974 5.53927L0.763659 6.70062C0.389423 6.8401 0.111797 7.16036 0.0268428 7.55055C-0.058033 7.94075 0.0612625 8.34745 0.343739 8.62984L6.01822 14.3043C6.24022 14.5264 6.53952 14.6481 6.84789 14.6481C6.91743 14.6481 6.98744 14.6419 7.05722 14.6293L12.6669 13.6123C13.1482 13.525 13.5249 13.1483 13.6122 12.667L14.6292 7.05733C14.6978 6.67872 14.5764 6.2904 14.3043 6.01825Z" fill="#391CDD"/>
<path d="M21.5132 19.8615L5.53442 3.88281L5.08391 5.09173L3.875 5.54223L19.8538 21.521C20.0829 21.7502 20.3832 21.8647 20.6835 21.8647C20.9838 21.8647 21.2841 21.7501 21.5131 21.521C21.9715 21.0628 21.9715 20.3198 21.5132 19.8615Z" fill="white"/>
</svg>
