<svg width="40" height="40" viewBox="0 0 40 40" fill="none" xmlns="http://www.w3.org/2000/svg">
<path d="M2.01562 7.41587V30.1698C2.01562 33.4157 4.64671 36.0622 7.89266 36.0622H18.7235C17.431 34.1083 16.7388 31.816 16.7388 29.4159C16.7388 22.7081 22.2004 17.2465 28.9079 17.2465C29.8801 17.2465 30.1426 17.3543 30.2928 17.3543V7.41587C30.2928 4.16955 27.6466 1.52344 24.4157 1.52344H7.89266C4.64671 1.52344 2.01562 4.16955 2.01562 7.41587ZM12.3848 28.6159H9.2621C8.41587 28.6159 7.72364 27.9237 7.72364 27.0775C7.72364 26.2158 8.41587 25.539 9.2621 25.539H12.3848C13.2311 25.539 13.9233 26.2158 13.9233 27.0775C13.9233 27.9237 13.2311 28.6159 12.3848 28.6159ZM14.0157 20.3234H9.2621C8.41587 20.3234 7.72364 19.6466 7.72364 18.7849C7.72364 17.9391 8.41587 17.2465 9.2621 17.2465H14.0157C14.8619 17.2465 15.5542 17.9391 15.5542 18.7849C15.5542 19.6466 14.8619 20.3234 14.0157 20.3234ZM9.2621 8.96973H23.0313C23.8775 8.96973 24.5697 9.66196 24.5697 10.5082C24.5697 11.3698 23.8775 12.0467 23.0313 12.0467H9.2621C8.41587 12.0467 7.72364 11.3698 7.72364 10.5082C7.72364 9.66196 8.41587 8.96973 9.2621 8.96973Z" fill="#391CDD"/>
<path opacity="0.5" d="M28.9047 20.3203C23.8742 20.3203 19.8125 24.3667 19.8125 29.4129C19.8125 34.593 24.0636 38.4742 28.9047 38.4742C33.9047 38.4742 37.9818 34.4128 37.9818 29.4129C37.9818 24.3295 33.8419 20.3203 28.9047 20.3203ZM31.3048 31.982C30.6884 32.5983 29.7368 32.5985 29.1203 31.982L27.6588 30.5205C27.3662 30.2283 27.2126 29.8437 27.2126 29.4283V26.3205C27.2126 25.4589 27.8894 24.7821 28.7511 24.7821C29.5973 24.7821 30.2895 25.4589 30.2895 26.3205V28.7972L31.3048 29.8129C31.905 30.4127 31.905 31.3821 31.3048 31.982Z" fill="#391CDD"/>
</svg>
